<?xml version="1.0" encoding="utf-8"?>
<!-- Generator: Adobe Illustrator 23.0.3, SVG Export Plug-In . SVG Version: 6.00 Build 0)  -->
<svg version="1.1" id="Layer_1" xmlns="http://www.w3.org/2000/svg" xmlns:xlink="http://www.w3.org/1999/xlink" x="0px" y="0px"
	 viewBox="0 0 387.9 387.9" style="enable-background:new 0 0 387.9 387.9;" xml:space="preserve">
<style type="text/css">
	.st0{fill:#258ACE;}
	.st1{fill:#FDB735;}
	.st2{fill:#36C136;}
	.st3{fill:#FD2475;}
	.st4{fill:#895EAD;}
	.st5{fill:#D83632;}
	.st6{fill:#30D4A2;}
	.st7{fill:#46CCCC;}
	.st8{fill:#4CC3CB;}
	.st9{fill:#60B0E2;}
	.st10{fill:none;stroke:#000000;stroke-width:14;stroke-miterlimit:10;}
	.st11{fill:#FFFFFF;}
</style>
<circle cx="194" cy="194" r="168.8" style="fill:#011526"/>
<g>
	<path class="st11" d="M193.5,264.8c-22.5,0-45,0-67.5,0c-7.8,0-9.4-2-8.3-9.6c1.2-7.6,3.1-15,6.5-21.9
		c7.1-14.6,19.2-21.7,35.1-22.3c22-0.8,44-0.8,66-0.1c23.5,0.7,36.5,11.2,42.6,33.9c1,3.7,1.7,7.5,2.3,11.2c1.1,6.4-0.9,8.7-7.2,8.7
		C239.8,264.8,216.7,264.8,193.5,264.8z"/>
	<path class="st11" d="M229.1,160.9c0.2,10.9-2.5,20.2-8.7,28.2c-13.1,16.9-35.9,17.3-49.5,0.9c-11.6-13.9-12.9-38.3-2.9-53.5
		c7.2-10.8,20.8-15.5,35.9-12.5c12.5,2.5,21.3,11.9,24.1,25.7C228.7,153.6,229.3,157.6,229.1,160.9z"/>
</g>
</svg>
