<?xml version="1.0" standalone="no"?>
<!DOCTYPE svg PUBLIC "-//W3C//DTD SVG 20010904//EN"
 "http://www.w3.org/TR/2001/REC-SVG-20010904/DTD/svg10.dtd">
<svg version="1.0" xmlns="http://www.w3.org/2000/svg"
 width="1280.000000pt" height="989.000000pt" viewBox="0 0 1280.000000 989.000000"
 preserveAspectRatio="xMidYMid meet">
<metadata>
Created by potrace 1.15, written by Peter Selinger 2001-2017
</metadata>
<g transform="translate(0.000000,989.000000) scale(0.100000,-0.100000)"
fill="white" stroke="none">
<path d="M0 9790 c0 -55 1 -100 3 -100 1 0 64 11 140 25 1416 253 3006 165
4432 -245 573 -165 1061 -354 1640 -635 521 -253 871 -391 1315 -520 582 -168
1118 -245 1701 -245 286 0 442 9 699 41 1096 136 2126 626 2772 1320 l98 104
0 178 0 177 -41 0 c-39 0 -48 -6 -171 -125 -1065 -1026 -2399 -1479 -3883
-1319 -904 97 -1867 421 -2810 947 -270 151 -622 372 -746 469 l-37 28 -2556
0 -2556 0 0 -100z"/>
<path d="M5180 9886 c0 -3 60 -45 133 -94 835 -563 1819 -996 2719 -1197 716
-160 1393 -186 2048 -79 908 148 1776 594 2481 1273 l104 100 -208 1 -208 0
-92 -83 c-654 -590 -1417 -928 -2332 -1034 -189 -21 -731 -24 -940 -5 -815 77
-1610 303 -2470 703 -194 90 -507 255 -672 353 l-112 66 -225 0 c-124 0 -226
-2 -226 -4z"/>
<path d="M5725 9876 c51 -35 369 -207 532 -288 137 -68 190 -89 210 -85 16 2
102 25 193 51 601 170 1382 282 2118 306 969 31 1941 -90 2807 -349 l99 -30
63 45 c106 76 253 193 343 272 47 42 89 79 95 84 5 4 -1451 8 -3235 8 -2744 0
-3241 -2 -3225 -14z"/>
<path d="M8690 9824 c-629 -28 -1389 -138 -1930 -280 -197 -51 -240 -64 -240
-73 0 -5 79 -43 176 -85 l176 -76 216 49 c960 222 2012 296 2907 205 419 -42
840 -127 1210 -243 71 -23 134 -41 139 -41 15 0 286 163 286 172 0 13 -292 94
-565 157 -420 98 -849 161 -1360 202 -134 10 -860 19 -1015 13z"/>
<path d="M1405 9814 c-333 -16 -657 -46 -930 -85 -202 -28 -421 -64 -457 -75
-16 -5 -18 -21 -18 -155 0 -139 1 -150 18 -145 72 23 436 86 662 115 393 51
714 71 1146 71 1454 0 2840 -314 4184 -950 426 -201 956 -503 1330 -757 87
-60 98 -64 135 -59 582 84 992 111 1510 103 591 -10 1077 -66 1648 -188 723
-155 1563 -477 2095 -801 34 -21 65 -38 67 -38 3 0 5 591 5 1314 l0 1314 -157
-157 c-820 -816 -2075 -1291 -3413 -1291 -866 0 -1788 207 -2663 599 -84 38
-269 125 -412 194 -443 214 -796 357 -1230 500 -788 260 -1497 399 -2405 473
-182 15 -933 27 -1115 18z"/>
<path d="M8825 9560 c-227 -12 -524 -37 -720 -61 -228 -27 -568 -80 -579 -89
-10 -10 109 -48 304 -96 164 -41 155 -41 500 -5 324 34 450 41 820 48 493 8
851 -17 1174 -83 65 -13 131 -24 147 -24 26 0 300 86 364 114 l30 13 -40 12
c-139 40 -526 106 -800 135 -338 37 -867 53 -1200 36z"/>
<path d="M1465 9500 c-471 -22 -879 -70 -1302 -152 l-163 -31 0 -139 c0 -128
1 -139 18 -134 38 11 215 46 352 70 508 89 960 126 1527 126 574 0 1030 -38
1563 -131 1173 -203 2326 -662 3295 -1309 204 -137 163 -128 399 -84 110 20
205 40 210 45 10 9 -191 142 -447 297 -1404 852 -2907 1328 -4518 1431 -224
15 -736 21 -934 11z"/>
<path d="M7190 9346 c-102 -23 -198 -46 -215 -50 l-30 -8 27 -14 c41 -22 247
-96 433 -157 460 -150 931 -253 1385 -304 235 -26 860 -26 1070 0 386 48 744
137 1070 267 128 51 360 160 360 170 0 4 -79 31 -175 60 l-176 52 -152 -55
c-465 -167 -933 -236 -1527 -224 -417 9 -720 44 -1155 132 -204 41 -521 122
-624 159 -59 22 -79 20 -291 -28z"/>
<path d="M8950 9319 c-174 -7 -432 -26 -733 -55 -37 -4 -70 -10 -72 -14 -5 -8
103 -29 335 -65 579 -90 1165 -92 1685 -4 158 26 203 38 185 49 -23 12 -247
48 -406 65 -295 31 -612 39 -994 24z"/>
<path d="M1595 9204 c-348 -15 -775 -55 -1065 -100 -162 -25 -414 -74 -491
-94 l-39 -11 0 -137 0 -138 178 32 c336 62 670 104 1117 141 266 23 1138 25
1390 5 698 -57 1244 -156 1805 -328 554 -169 1027 -383 1518 -687 l113 -70
147 26 c81 14 175 29 210 32 34 4 62 11 62 15 0 20 -474 287 -745 420 -1034
507 -2089 789 -3270 875 -201 15 -762 26 -930 19z"/>
<path d="M1750 8883 c-373 -11 -828 -51 -1190 -103 -207 -30 -538 -88 -552
-96 -10 -6 -11 -314 -1 -314 4 0 89 18 188 40 405 88 860 150 1330 180 205 13
782 13 995 0 936 -57 1749 -238 2535 -565 88 -37 172 -72 187 -78 22 -9 53 -5
165 21 76 18 166 38 201 45 34 7 63 16 63 21 2 21 -404 216 -669 322 -931 375
-2093 563 -3252 527z"/>
<path d="M1755 8564 c-430 -16 -894 -65 -1270 -135 -256 -47 -265 -49 -265
-64 0 -19 109 -160 168 -219 l50 -49 139 26 c414 78 885 128 1393 148 606 24
1265 -32 1790 -151 178 -40 252 -61 452 -126 l166 -55 191 77 c105 42 189 80
186 84 -5 8 -296 107 -455 154 -503 149 -1116 256 -1701 296 -157 11 -695 20
-844 14z"/>
<path d="M62 8343 l-62 -14 0 -153 0 -153 143 -139 c170 -167 266 -245 452
-369 360 -240 741 -387 1190 -457 192 -30 697 -33 905 -5 503 68 989 215 1490
452 342 161 601 269 864 357 86 29 156 55 156 58 0 4 -68 35 -150 69 -249 103
-193 103 -446 1 -235 -94 -436 -179 -769 -325 -374 -164 -739 -266 -1150 -322
-187 -25 -643 -25 -810 0 -308 46 -552 121 -805 247 -335 166 -618 395 -829
673 -81 107 -76 105 -179 80z"/>
<path d="M1905 8234 c-384 -18 -1006 -81 -1029 -104 -11 -11 101 -93 227 -166
l99 -57 191 22 c288 32 406 41 704 50 449 15 863 -7 1208 -64 82 -14 160 -25
173 -25 39 0 401 154 390 165 -8 8 -324 74 -448 94 -370 60 -637 81 -1085 85
-198 2 -391 2 -430 0z"/>
<path d="M610 8093 c-74 -14 -137 -27 -140 -30 -5 -5 53 -59 168 -155 263
-218 669 -413 1014 -487 516 -111 1072 -79 1675 95 188 54 306 98 538 201 99
44 236 104 305 133 69 29 129 57 134 61 13 11 -32 29 -211 84 l-150 46 -112
-51 c-800 -361 -1523 -453 -2194 -281 -282 73 -565 209 -768 367 -66 52 -70
52 -259 17z"/>
<path d="M5629 7980 c-379 -67 -873 -241 -1425 -503 -924 -439 -1828 -585
-2608 -421 -315 67 -615 183 -893 345 -203 119 -378 255 -571 443 l-132 129 0
-206 0 -205 97 -91 c207 -191 396 -322 633 -440 303 -150 599 -238 975 -288
185 -24 682 -24 885 0 421 51 854 152 1288 302 156 54 220 78 692 270 486 198
1071 392 1419 470 60 14 71 19 60 30 -20 18 -277 173 -297 179 -9 2 -65 -4
-123 -14z"/>
<path d="M2035 7944 c-282 -14 -682 -49 -725 -63 -24 -8 -22 -10 30 -34 30
-13 112 -43 181 -65 394 -128 826 -154 1289 -76 231 39 592 136 574 154 -11
11 -318 55 -484 70 -125 11 -732 21 -865 14z"/>
<path d="M6440 7834 c-490 -63 -1185 -275 -2010 -614 -838 -345 -1423 -493
-2100 -531 -312 -18 -666 10 -965 77 -484 108 -949 352 -1292 677 l-73 70 2
-209 3 -208 85 -74 c940 -816 2738 -781 5049 100 694 264 1125 399 1689 528
28 7 52 15 52 18 0 4 -60 46 -133 95 -148 97 -133 94 -307 71z"/>
<path d="M8695 7843 c-952 -17 -2006 -209 -2962 -541 -245 -86 -803 -296 -803
-303 0 -3 38 -14 84 -23 46 -9 145 -32 221 -51 76 -19 147 -35 157 -35 11 0
82 25 159 55 187 74 481 174 714 241 1479 430 3011 498 4356 194 719 -163
1408 -433 2021 -793 81 -48 150 -87 153 -87 3 0 5 69 5 153 l0 152 -108 63
c-223 131 -587 306 -878 422 -819 328 -1780 525 -2654 545 -124 3 -250 7 -280
8 -30 1 -113 1 -185 0z"/>
<path d="M8495 7524 c-665 -38 -1266 -127 -1860 -275 -291 -73 -605 -166 -605
-180 0 -4 19 -13 43 -19 23 -5 147 -44 276 -86 l233 -76 142 40 c926 268 1991
354 2997 241 1063 -118 2043 -467 2907 -1035 l172 -113 0 214 0 214 -87 54
c-141 87 -396 225 -568 308 -806 388 -1643 612 -2595 695 -172 15 -895 27
-1055 18z"/>
<path d="M8310 7164 c-324 -23 -1042 -122 -1068 -148 -8 -8 -17 -3 220 -136
l218 -122 142 26 c164 30 398 60 613 78 216 18 775 15 1013 -6 880 -75 1686
-298 2436 -673 142 -71 173 -83 200 -77 47 10 276 80 316 96 l35 14 -90 53
c-895 529 -1904 828 -3040 901 -217 14 -757 10 -995 -6z"/>
<path d="M0 6214 c0 -665 3 -835 12 -831 7 3 73 33 147 67 310 141 740 297
1116 405 765 219 1521 325 2315 325 328 0 511 -9 825 -40 962 -97 1967 -398
2845 -852 96 -50 265 -137 375 -194 392 -202 817 -349 1311 -453 815 -173
1781 -221 2709 -136 402 37 806 105 1063 178 l77 22 3 197 2 196 -62 -20
c-477 -150 -1466 -252 -2273 -234 -855 19 -1563 126 -2145 325 -245 83 -402
155 -640 291 -876 500 -1948 951 -2940 1235 -140 40 -289 80 -330 90 l-76 18
-229 -66 c-793 -227 -1367 -323 -1998 -334 -325 -6 -485 2 -726 38 -527 77
-978 265 -1303 543 l-78 67 0 -837z"/>
<path d="M5735 6976 c-183 -67 -271 -104 -264 -110 2 -2 85 -29 185 -59 668
-206 1386 -523 2089 -922 268 -152 299 -168 435 -228 470 -206 1088 -339 1860
-399 255 -20 1023 -17 1280 5 565 49 967 118 1335 230 l140 42 3 184 c2 172 1
183 -15 176 -67 -25 -325 -100 -463 -134 -591 -144 -1217 -211 -1840 -198
-655 14 -1219 104 -1714 274 -267 92 -427 165 -750 345 -353 197 -870 443
-1231 586 -327 130 -772 273 -849 272 -17 -1 -107 -29 -201 -64z"/>
<path d="M6965 6956 c-194 -50 -319 -86 -313 -91 2 -2 97 -42 210 -89 392
-161 780 -347 1186 -570 265 -145 340 -182 492 -246 390 -165 880 -279 1440
-336 209 -21 841 -30 1065 -15 609 41 1117 131 1610 283 190 59 191 55 -14
190 l-160 106 -138 -44 c-822 -263 -1837 -333 -2733 -188 -495 80 -833 185
-1215 379 -214 108 -676 359 -1040 564 -99 55 -189 101 -200 101 -11 -1 -96
-20 -190 -44z"/>
<path d="M4635 6904 c-230 -78 -219 -73 -213 -80 3 -2 86 -27 184 -54 1024
-280 2063 -707 3024 -1241 140 -78 308 -166 373 -195 634 -288 1466 -437 2502
-451 589 -8 1036 19 1542 92 284 41 439 72 621 122 l132 36 0 185 c0 171 -1
184 -17 177 -41 -15 -250 -76 -341 -99 -555 -140 -1415 -217 -2090 -188 -1096
48 -1879 224 -2467 556 -66 38 -192 109 -280 158 -730 412 -1623 777 -2341
957 -139 35 -405 91 -425 90 -8 0 -99 -29 -204 -65z"/>
<path d="M8506 6829 c-76 -5 -141 -11 -144 -14 -10 -10 31 -33 203 -119 292
-146 262 -138 535 -141 559 -7 1114 -94 1654 -259 167 -52 200 -54 374 -31
143 19 343 53 350 59 2 3 -6 10 -19 15 -323 127 -499 187 -740 255 -378 107
-795 182 -1219 221 -206 20 -788 28 -994 14z"/>
<path d="M8080 6789 c-196 -27 -325 -53 -323 -64 2 -10 324 -187 638 -350 454
-236 914 -361 1595 -432 239 -25 914 -25 1160 0 237 24 422 51 625 92 250 50
244 40 85 120 -74 37 -173 85 -221 106 l-88 38 -123 -24 c-488 -95 -1019 -107
-1518 -34 -510 74 -1068 254 -1456 471 -174 96 -177 98 -209 97 -16 -1 -91
-10 -165 -20z"/>
<path d="M9005 6511 c16 -16 266 -96 443 -141 275 -69 526 -109 822 -130 186
-13 510 -13 510 0 0 11 -143 56 -317 100 -427 106 -832 163 -1263 176 -150 5
-202 4 -195 -5z"/>
<path d="M3225 6139 c-1036 -45 -2164 -314 -3079 -735 l-146 -66 0 -159 0
-158 203 99 c797 390 1638 620 2622 717 262 26 1048 26 1325 0 1055 -98 1949
-347 3026 -841 l82 -38 133 63 c74 34 138 66 142 70 11 8 -34 34 -263 152
-1261 652 -2641 957 -4045 896z"/>
<path d="M3130 5819 c-1049 -49 -2109 -322 -2993 -771 l-137 -69 0 -164 0
-164 183 94 c808 416 1770 681 2777 767 240 20 996 17 1225 -5 910 -90 1667
-288 2503 -657 l162 -71 142 62 c79 34 159 69 178 79 l34 18 -72 36 c-194 98
-613 271 -909 375 -1009 355 -2079 518 -3093 470z"/>
<path d="M3202 5490 c-937 -47 -1877 -266 -2697 -629 -77 -35 -144 -66 -149
-71 -6 -6 53 -40 149 -86 139 -68 161 -76 184 -67 14 6 87 36 161 68 796 334
1783 525 2720 525 754 0 1445 -111 2174 -350 l268 -88 132 52 c72 29 151 63
175 76 l45 22 -27 14 c-68 36 -464 172 -695 239 -522 152 -1044 245 -1593 284
-212 16 -647 21 -847 11z"/>
<path d="M3315 5189 c-669 -23 -1355 -143 -1979 -346 -111 -36 -165 -58 -155
-63 18 -10 256 -65 411 -95 l117 -22 168 43 c775 201 1635 269 2378 188 153
-17 409 -59 576 -95 l106 -23 109 33 c150 46 364 123 364 132 0 10 -384 103
-575 138 -307 57 -641 95 -920 106 -309 11 -385 12 -600 4z"/>
<path d="M7405 4988 c-1097 -519 -2202 -879 -3200 -1044 -478 -78 -831 -108
-1305 -108 -466 -1 -775 25 -1181 99 -577 106 -1181 324 -1603 579 -59 36
-110 66 -112 66 -2 0 -4 -69 -4 -154 l0 -154 93 -60 c483 -311 1081 -521 1767
-621 313 -46 467 -55 905 -56 441 0 579 7 945 51 1170 139 2454 526 3863 1166
280 126 342 158 331 168 -12 11 -312 150 -321 149 -4 0 -84 -37 -178 -81z"/>
<path d="M5415 4898 c-85 -35 -333 -117 -475 -157 -788 -224 -1702 -292 -2620
-196 -415 43 -730 96 -1062 177 l-166 40 -181 -73 c-100 -40 -181 -77 -181
-80 0 -16 257 -107 500 -178 1292 -378 2836 -304 4350 208 249 84 350 122 350
131 0 10 -417 150 -445 149 -11 0 -42 -9 -70 -21z"/>
<path d="M6285 4864 c-1161 -492 -2442 -747 -3535 -704 -875 35 -1638 208
-2268 516 -95 46 -177 84 -182 84 -13 0 -182 -85 -233 -117 -49 -31 -52 -28
123 -129 585 -335 1265 -537 2100 -621 222 -22 910 -25 1155 -5 815 68 1605
238 2470 533 334 113 875 322 875 338 0 7 -351 161 -365 161 -6 -1 -68 -26
-140 -56z"/>
<path d="M3255 4883 c-114 -7 -408 -35 -520 -49 -316 -39 -905 -159 -905 -184
0 -8 79 -21 271 -45 709 -86 1392 -86 2014 1 243 33 688 124 709 144 27 26
-477 106 -814 130 -131 9 -630 11 -755 3z"/>
<path d="M7741 4789 c-2675 -1251 -5043 -1608 -6787 -1024 -302 102 -636 257
-848 395 l-106 69 0 -157 0 -158 102 -64 c141 -88 415 -227 579 -294 1093
-444 2490 -470 4172 -75 813 190 1770 514 2622 886 405 177 843 390 829 402
-12 10 -321 121 -337 121 -7 -1 -108 -46 -226 -101z"/>
<path d="M8179 4654 c-844 -419 -1848 -807 -2739 -1058 -764 -215 -1411 -338
-2160 -408 -216 -20 -1023 -17 -1225 5 -687 75 -1181 212 -1685 468 -85 43
-202 107 -260 142 l-105 65 -3 -181 c-2 -138 1 -183 10 -189 610 -388 1200
-563 2088 -619 235 -15 932 -6 1200 15 992 79 1919 228 3295 532 609 135 813
173 1280 238 481 68 908 99 1370 99 663 0 1207 -64 1760 -208 683 -177 1292
-479 1723 -853 l72 -63 0 1015 0 1015 -67 -19 c-294 -85 -668 -144 -1198 -192
-219 -19 -315 -22 -780 -23 -510 0 -580 3 -930 36 -489 46 -999 143 -1436 275
-9 2 -103 -39 -210 -92z"/>
<path d="M8920 3723 c-593 -25 -1229 -105 -1855 -233 -160 -33 -973 -209
-1042 -227 -13 -3 -21 -9 -18 -13 9 -14 264 -160 280 -160 8 0 68 16 133 36
160 49 460 125 679 173 1255 275 2508 314 3503 110 847 -174 1557 -516 2115
-1018 l80 -72 3 132 3 132 -28 30 c-53 55 -269 224 -399 310 -711 472 -1625
738 -2729 797 -171 9 -555 11 -725 3z"/>
<path d="M8785 3494 c-22 -2 -112 -8 -200 -14 -529 -36 -1206 -143 -1740 -276
-186 -47 -488 -134 -498 -143 -8 -8 66 -54 200 -126 l52 -28 148 47 c197 62
623 167 856 211 365 68 731 114 1102 136 240 15 814 6 1025 -15 579 -58 1087
-176 1555 -361 172 -67 537 -249 695 -345 274 -166 557 -381 763 -579 l57 -55
0 159 0 160 -106 95 c-648 580 -1451 930 -2464 1074 -340 49 -487 58 -960 61
-245 2 -463 1 -485 -1z"/>
<path d="M0 2655 c0 -765 1 -807 18 -800 228 93 527 198 797 280 1476 445
2991 524 4317 224 499 -113 875 -240 1418 -479 1541 -679 2455 -1031 3345
-1286 863 -248 1662 -360 2321 -326 204 11 372 26 532 47 l52 8 0 116 0 117
-117 -17 c-223 -32 -421 -42 -731 -36 -306 6 -470 19 -772 63 -1114 160 -2469
630 -3950 1371 -621 310 -1345 717 -1870 1052 -114 73 -174 105 -195 105 -16
0 -172 -23 -345 -52 -1766 -289 -3092 -280 -4000 26 -304 103 -509 201 -808
386 -9 6 -12 -175 -12 -799z"/>
<path d="M8895 3273 c-412 -12 -984 -81 -1435 -173 -128 -26 -421 -98 -428
-105 -7 -7 -11 -5 124 -79 l122 -67 98 25 c330 83 797 149 1239 177 243 15
802 7 1025 -16 1112 -109 2005 -462 2747 -1083 66 -55 186 -167 266 -247 l147
-147 0 169 0 169 -62 60 c-366 356 -873 687 -1374 897 -603 252 -1226 383
-1984 417 -213 9 -270 10 -485 3z"/>
<path d="M5752 3210 c-73 -15 -136 -30 -139 -34 -9 -8 -26 3 227 -153 1210
-746 2669 -1424 3836 -1782 1169 -358 2122 -483 2984 -391 156 17 140 1 140
146 0 126 0 126 -22 121 -51 -13 -262 -37 -398 -47 -802 -55 -1859 138 -3045
558 -1019 360 -2203 917 -3236 1521 -106 61 -166 91 -185 90 -16 -1 -89 -13
-162 -29z"/>
<path d="M5392 3141 c-73 -14 -134 -31 -135 -36 -3 -20 661 -421 1123 -678
1772 -984 3453 -1626 4775 -1821 603 -89 1076 -95 1598 -20 l47 7 0 119 0 120
-37 -6 c-92 -15 -234 -26 -436 -36 -889 -44 -2005 166 -3227 607 -1087 392
-2339 1007 -3394 1665 -87 55 -163 101 -170 103 -6 1 -71 -9 -144 -24z"/>
<path d="M8703 3019 c-317 -14 -952 -90 -955 -114 -1 -5 71 -47 160 -93 l161
-82 93 15 c387 61 966 78 1403 40 1088 -94 1970 -447 2647 -1057 l77 -70 128
7 c70 4 146 10 167 14 l39 6 -108 104 c-700 667 -1706 1095 -2835 1206 -324
31 -634 39 -977 24z"/>
<path d="M6825 2940 c-71 -21 -141 -43 -154 -48 l-24 -9 34 -20 c71 -43 553
-291 759 -391 924 -448 1721 -768 2495 -1002 1085 -327 1999 -438 2743 -332
l117 17 3 114 3 113 -33 -5 c-211 -38 -881 -45 -1183 -14 -935 99 -1896 359
-2956 800 -515 215 -1236 567 -1607 786 -29 17 -56 31 -60 30 -4 0 -65 -18
-137 -39z"/>
<path d="M7570 2880 c-41 -10 -110 -25 -152 -35 -43 -9 -78 -20 -78 -25 0 -13
675 -348 935 -464 1192 -533 2293 -852 3270 -950 391 -39 808 -41 1120 -6 140
16 135 14 135 61 0 38 -6 48 -68 111 l-68 70 -260 -10 c-971 -38 -1991 147
-3194 580 -434 156 -849 334 -1282 550 -152 76 -278 138 -280 137 -2 -1 -37
-9 -78 -19z"/>
<path d="M8740 2761 c-28 -8 -45 1 275 -131 l190 -78 155 -11 c545 -41 1147
-172 1600 -348 63 -24 198 -85 300 -135 175 -86 190 -92 270 -99 122 -11 342
-11 336 0 -3 5 -58 44 -122 86 -623 413 -1415 657 -2324 714 -181 12 -640 13
-680 2z"/>
<path d="M8522 2749 c-233 -24 -372 -43 -370 -51 2 -5 89 -47 193 -94 1143
-515 2258 -828 3270 -919 217 -20 595 -31 595 -19 0 14 -84 93 -184 173 l-90
71 -121 0 c-754 0 -1863 279 -2960 745 -121 51 -229 95 -240 98 -11 2 -53 1
-93 -4z"/>
<path d="M3035 2494 c-996 -62 -2000 -280 -2883 -626 l-152 -59 0 -86 c0 -77
2 -84 18 -78 1359 545 2844 769 4197 634 1433 -143 2713 -644 3869 -1514 270
-203 644 -524 821 -704 l59 -61 1918 0 1918 0 0 144 0 143 -48 -8 c-216 -34
-390 -44 -767 -44 -383 0 -488 6 -765 41 -1112 141 -2483 595 -4508 1493 -589
261 -895 376 -1289 481 -421 113 -802 180 -1283 226 -156 15 -947 28 -1105 18z"/>
<path d="M9380 2487 c37 -21 473 -169 705 -238 340 -102 729 -192 1030 -239
72 -11 145 -23 163 -26 60 -10 33 13 -80 66 -333 156 -684 267 -1118 354 -189
38 -491 81 -635 91 -82 5 -88 5 -65 -8z"/>
<path d="M2970 2269 c-927 -50 -1955 -273 -2812 -609 l-158 -61 0 -161 c0 -88
3 -158 8 -156 4 2 88 35 187 75 676 268 1500 481 2225 573 425 54 602 64 1075
64 553 0 774 -17 1245 -95 1041 -172 2016 -582 2875 -1207 237 -173 466 -363
728 -604 l94 -88 239 0 239 1 -90 87 c-595 573 -1328 1088 -2049 1437 -908
440 -1850 682 -2906 745 -188 11 -685 11 -900 -1z"/>
<path d="M3202 1960 c-1012 -41 -2080 -271 -3042 -655 l-155 -62 -3 -147 c-1
-80 0 -146 3 -146 3 0 50 19 103 41 1140 486 2463 753 3597 725 1052 -25 1944
-241 2815 -682 495 -250 953 -566 1390 -957 l85 -76 192 -1 193 0 -78 73
c-774 735 -1717 1290 -2698 1587 -752 228 -1589 332 -2402 300z"/>
<path d="M3170 1673 c-412 -19 -976 -98 -1423 -198 -258 -57 -550 -136 -540
-146 16 -15 306 -101 327 -96 11 2 113 25 226 50 378 85 747 140 1230 184 246
22 940 25 1155 5 574 -54 1000 -147 1417 -309 l119 -46 189 39 c105 21 190 41
190 45 0 11 -195 85 -420 159 -514 170 -1032 267 -1640 310 -130 9 -663 11
-830 3z"/>
<path d="M3450 1453 c-174 -4 -486 -23 -640 -39 -200 -20 -583 -74 -593 -83
-15 -14 448 -87 733 -115 336 -34 478 -40 880 -40 443 0 625 11 1005 59 201
26 261 38 235 48 -24 10 -225 54 -345 76 -140 26 -376 57 -530 71 -113 10
-608 32 -630 28 -5 -1 -57 -3 -115 -5z"/>
<path d="M908 1247 c-104 -33 -188 -64 -188 -67 0 -18 307 -113 590 -184 611
-153 1226 -241 1950 -277 440 -22 1216 -3 1660 41 304 30 783 94 975 130 309
57 585 114 585 120 0 10 -324 160 -347 160 -10 0 -93 -15 -183 -34 -696 -146
-1306 -213 -2010 -223 -510 -7 -871 11 -1330 67 -466 58 -956 161 -1326 281
-83 27 -160 49 -170 48 -11 0 -103 -28 -206 -62z"/>
<path d="M1833 1262 c-117 -25 -213 -49 -213 -53 0 -4 66 -23 148 -43 686
-164 1540 -243 2316 -216 482 16 757 41 1230 110 252 37 286 44 275 54 -7 7
-249 93 -326 116 l-73 22 -122 -21 c-620 -103 -1434 -125 -2088 -55 -307 32
-612 77 -785 115 -49 10 -103 19 -120 18 -16 -1 -126 -22 -242 -47z"/>
<path d="M486 1102 c-82 -31 -147 -61 -146 -67 9 -24 356 -159 600 -234 1384
-420 3268 -472 5235 -145 268 44 698 124 705 130 6 7 1 10 -178 110 l-153 85
-122 -25 c-897 -189 -1796 -286 -2637 -286 -1075 0 -2153 156 -2972 431 -98
32 -179 59 -180 58 -2 0 -70 -26 -152 -57z"/>
<path d="M135 961 l-130 -57 0 -69 0 -69 115 -53 c739 -335 1726 -543 2865
-603 253 -13 1062 -13 1300 0 971 54 1703 145 2695 336 326 63 322 62 314 76
-4 6 -84 61 -179 124 l-172 113 -199 -39 c-716 -141 -1455 -237 -2239 -291
-250 -17 -1141 -23 -1403 -10 -1104 57 -2086 258 -2755 565 -43 20 -79 36 -80
35 -1 0 -60 -26 -132 -58z"/>
<path d="M0 364 l0 -364 3968 0 3967 1 -65 61 c-79 74 -254 220 -375 314 -153
119 -113 112 -347 65 -978 -194 -1759 -299 -2673 -358 -337 -22 -1297 -25
-1585 -5 -1153 79 -2057 273 -2762 592 l-128 58 0 -364z"/>
</g>
</svg>
