<?xml version="1.0" standalone="no"?>
<!DOCTYPE svg PUBLIC "-//W3C//DTD SVG 20010904//EN"
 "http://www.w3.org/TR/2001/REC-SVG-20010904/DTD/svg10.dtd">
<svg version="1.0" xmlns="http://www.w3.org/2000/svg"
 width="860.000000pt" height="1280.000000pt" viewBox="0 0 860.000000 1280.000000"
 preserveAspectRatio="xMidYMid meet">
<g transform="translate(0.000000,1280.000000) scale(0.100000,-0.100000)"
fill="#000000" stroke="none">
<path d="M5385 11884 c-2504 -2134 -3218 -2739 -3235 -2739 -10 0 -494 405
-1076 900 -581 495 -1061 901 -1066 903 -4 2 -8 -403 -8 -901 0 -715 3 -906
13 -910 6 -2 489 -410 1072 -906 583 -495 1062 -901 1065 -901 5 0 432 363
3229 2743 580 493 1062 897 1071 897 9 0 495 -407 1081 -905 l1064 -906 3 901
2 901 -32 27 c-18 15 -499 424 -1070 910 -571 485 -1044 882 -1051 881 -6 0
-484 -403 -1062 -895z"/>
<path d="M5379 9492 c-2711 -2306 -3208 -2727 -3226 -2730 -12 -2 -376 302
-1083 903 l-1065 906 -3 -902 -2 -901 22 -18 c13 -10 494 -419 1071 -909 576
-490 1052 -891 1057 -891 5 0 493 411 1083 913 590 501 1551 1318 2135 1815
585 497 1069 905 1076 908 10 4 1157 -962 2064 -1738 l92 -80 0 904 -1 903
-1070 910 c-589 501 -1074 911 -1077 912 -4 1 -487 -406 -1073 -905z"/>
<path d="M5380 7034 c-586 -499 -1548 -1318 -2139 -1820 -591 -503 -1082 -914
-1091 -914 -9 0 -489 402 -1066 893 -578 490 -1058 898 -1067 906 -16 13 -17
-44 -16 -890 l1 -904 1065 -905 c587 -498 1072 -906 1079 -908 7 -2 483 396
1057 885 574 488 1536 1307 2137 1818 601 512 1101 930 1110 930 9 0 495 -406
1078 -902 584 -497 1064 -903 1067 -903 3 0 5 407 5 905 0 498 -4 905 -8 905
-5 0 -488 407 -1073 905 -585 498 -1066 905 -1069 905 -3 0 -484 -408 -1070
-906z"/>
<path d="M5360 4547 c-597 -507 -1559 -1326 -2139 -1820 -580 -493 -1062 -897
-1071 -897 -9 0 -495 407 -1081 905 l-1064 906 -3 -901 -2 -901 32 -27 c18
-15 499 -424 1070 -910 571 -485 1043 -882 1048 -882 5 0 481 401 1057 891
577 491 1538 1308 2137 1818 598 509 1096 926 1106 926 10 0 494 -405 1076
-900 581 -495 1061 -901 1066 -903 4 -2 8 403 8 901 0 715 -3 906 -12 910 -7
2 -490 410 -1073 906 -583 495 -1062 901 -1065 901 -3 0 -494 -415 -1090 -923z"/>
</g>
</svg>
