<?xml version="1.0" standalone="no"?>
<!DOCTYPE svg PUBLIC "-//W3C//DTD SVG 20010904//EN"
 "http://www.w3.org/TR/2001/REC-SVG-20010904/DTD/svg10.dtd">
<svg version="1.0" xmlns="http://www.w3.org/2000/svg"
 width="1280.000000pt" height="1280.000000pt" viewBox="0 0 1280.000000 1280.000000"
 preserveAspectRatio="xMidYMid meet">
<g transform="translate(0.000000,1280.000000) scale(0.100000,-0.100000)"
fill="#000000" stroke="none">
<path d="M0 12763 l0 -37 35 34 c19 19 35 35 35 37 0 2 -16 3 -35 3 -34 0 -35
-1 -35 -37z"/>
<path d="M1243 12763 l37 -38 37 38 38 37 -75 0 -75 0 38 -37z"/>
<path d="M2523 12763 l37 -38 37 38 38 37 -75 0 -75 0 38 -37z"/>
<path d="M3803 12763 l37 -38 37 38 38 37 -75 0 -75 0 38 -37z"/>
<path d="M5083 12763 l37 -38 37 38 38 37 -75 0 -75 0 38 -37z"/>
<path d="M6363 12763 l37 -38 37 38 38 37 -75 0 -75 0 38 -37z"/>
<path d="M7643 12763 l37 -38 37 38 38 37 -75 0 -75 0 38 -37z"/>
<path d="M8923 12763 l37 -38 37 38 38 37 -75 0 -75 0 38 -37z"/>
<path d="M10203 12763 l37 -38 37 38 38 37 -75 0 -75 0 38 -37z"/>
<path d="M11483 12763 l37 -38 37 38 38 37 -75 0 -75 0 38 -37z"/>
<path d="M12760 12765 c19 -19 35 -35 37 -35 2 0 3 16 3 35 0 34 -1 35 -37 35
l-37 0 34 -35z"/>
<path d="M585 12210 l-50 -50 53 -53 52 -52 52 52 53 53 -50 50 c-27 27 -52
50 -55 50 -3 0 -28 -23 -55 -50z"/>
<path d="M1865 12210 l-50 -50 53 -53 52 -52 52 52 53 53 -50 50 c-27 27 -52
50 -55 50 -3 0 -28 -23 -55 -50z"/>
<path d="M3145 12210 l-50 -50 53 -53 52 -52 52 52 53 53 -50 50 c-27 27 -52
50 -55 50 -3 0 -28 -23 -55 -50z"/>
<path d="M4425 12210 l-50 -50 53 -53 52 -52 52 52 53 53 -50 50 c-27 27 -52
50 -55 50 -3 0 -28 -23 -55 -50z"/>
<path d="M5705 12210 l-50 -50 53 -53 52 -52 52 52 53 53 -50 50 c-27 27 -52
50 -55 50 -3 0 -28 -23 -55 -50z"/>
<path d="M6985 12210 l-50 -50 53 -53 52 -52 52 52 53 53 -50 50 c-27 27 -52
50 -55 50 -3 0 -28 -23 -55 -50z"/>
<path d="M8265 12210 l-50 -50 53 -53 52 -52 52 52 53 53 -50 50 c-27 27 -52
50 -55 50 -3 0 -28 -23 -55 -50z"/>
<path d="M9545 12210 l-50 -50 53 -53 52 -52 52 52 53 53 -50 50 c-27 27 -52
50 -55 50 -3 0 -28 -23 -55 -50z"/>
<path d="M10825 12210 l-50 -50 53 -53 52 -52 52 52 53 53 -50 50 c-27 27 -52
50 -55 50 -3 0 -28 -23 -55 -50z"/>
<path d="M12105 12210 l-50 -50 53 -53 52 -52 52 52 53 53 -50 50 c-27 27 -52
50 -55 50 -3 0 -28 -23 -55 -50z"/>
<path d="M0 11520 l0 -125 62 63 63 62 -63 62 -62 63 0 -125z"/>
<path d="M1215 11580 l-60 -60 63 -63 62 -62 62 62 63 63 -60 60 c-33 33 -62
60 -65 60 -3 0 -32 -27 -65 -60z"/>
<path d="M2495 11580 l-60 -60 63 -63 62 -62 62 62 63 63 -60 60 c-33 33 -62
60 -65 60 -3 0 -32 -27 -65 -60z"/>
<path d="M3775 11580 l-60 -60 63 -63 62 -62 62 62 63 63 -60 60 c-33 33 -62
60 -65 60 -3 0 -32 -27 -65 -60z"/>
<path d="M5055 11580 l-60 -60 63 -63 62 -62 62 62 63 63 -60 60 c-33 33 -62
60 -65 60 -3 0 -32 -27 -65 -60z"/>
<path d="M6335 11580 l-60 -60 63 -63 62 -62 62 62 63 63 -60 60 c-33 33 -62
60 -65 60 -3 0 -32 -27 -65 -60z"/>
<path d="M7615 11580 l-60 -60 63 -63 62 -62 62 62 63 63 -60 60 c-33 33 -62
60 -65 60 -3 0 -32 -27 -65 -60z"/>
<path d="M8895 11580 l-60 -60 63 -63 62 -62 62 62 63 63 -60 60 c-33 33 -62
60 -65 60 -3 0 -32 -27 -65 -60z"/>
<path d="M10175 11580 l-60 -60 63 -63 62 -62 62 62 63 63 -60 60 c-33 33 -62
60 -65 60 -3 0 -32 -27 -65 -60z"/>
<path d="M11455 11580 l-60 -60 63 -63 62 -62 62 62 63 63 -60 60 c-33 33 -62
60 -65 60 -3 0 -32 -27 -65 -60z"/>
<path d="M12735 11580 l-60 -60 63 -63 62 -62 0 123 c0 67 -1 122 -3 122 -1 0
-29 -27 -62 -60z"/>
<path d="M565 10950 l-70 -70 73 -73 72 -72 72 72 73 73 -70 70 c-38 38 -72
70 -75 70 -3 0 -37 -32 -75 -70z"/>
<path d="M1845 10950 l-70 -70 73 -73 72 -72 72 72 73 73 -70 70 c-38 38 -72
70 -75 70 -3 0 -37 -32 -75 -70z"/>
<path d="M3125 10950 l-70 -70 73 -73 72 -72 72 72 73 73 -70 70 c-38 38 -72
70 -75 70 -3 0 -37 -32 -75 -70z"/>
<path d="M4405 10950 l-70 -70 73 -73 72 -72 72 72 73 73 -70 70 c-38 38 -72
70 -75 70 -3 0 -37 -32 -75 -70z"/>
<path d="M5685 10950 l-70 -70 73 -73 72 -72 72 72 73 73 -70 70 c-38 38 -72
70 -75 70 -3 0 -37 -32 -75 -70z"/>
<path d="M6965 10950 l-70 -70 73 -73 72 -72 72 72 73 73 -70 70 c-38 38 -72
70 -75 70 -3 0 -37 -32 -75 -70z"/>
<path d="M8245 10950 l-70 -70 73 -73 72 -72 72 72 73 73 -70 70 c-38 38 -72
70 -75 70 -3 0 -37 -32 -75 -70z"/>
<path d="M9525 10950 l-70 -70 73 -73 72 -72 72 72 73 73 -70 70 c-38 38 -72
70 -75 70 -3 0 -37 -32 -75 -70z"/>
<path d="M10805 10950 l-70 -70 73 -73 72 -72 72 72 73 73 -70 70 c-38 38 -72
70 -75 70 -3 0 -37 -32 -75 -70z"/>
<path d="M12085 10950 l-70 -70 73 -73 72 -72 72 72 73 73 -70 70 c-38 38 -72
70 -75 70 -3 0 -37 -32 -75 -70z"/>
<path d="M0 10247 c0 -92 3 -167 7 -167 15 0 153 145 153 160 0 9 -36 51 -80
95 l-80 80 0 -168z"/>
<path d="M12718 10333 c-43 -43 -78 -85 -78 -93 0 -18 146 -167 155 -158 3 3
4 78 3 167 l-3 162 -77 -78z"/>
<path d="M1192 10327 c-39 -40 -72 -79 -72 -87 0 -20 141 -160 160 -160 20 0
160 140 160 160 0 20 -141 160 -160 160 -9 0 -48 -33 -88 -73z"/>
<path d="M2472 10327 c-39 -40 -72 -79 -72 -87 0 -20 141 -160 160 -160 20 0
160 140 160 160 0 20 -141 160 -160 160 -9 0 -48 -33 -88 -73z"/>
<path d="M3752 10327 c-39 -40 -72 -79 -72 -87 0 -20 141 -160 160 -160 20 0
160 140 160 160 0 20 -141 160 -160 160 -9 0 -48 -33 -88 -73z"/>
<path d="M5032 10327 c-39 -40 -72 -79 -72 -87 0 -20 141 -160 160 -160 20 0
160 140 160 160 0 20 -141 160 -160 160 -9 0 -48 -33 -88 -73z"/>
<path d="M6312 10327 c-39 -40 -72 -79 -72 -87 0 -20 141 -160 160 -160 20 0
160 140 160 160 0 20 -141 160 -160 160 -9 0 -48 -33 -88 -73z"/>
<path d="M7592 10327 c-39 -40 -72 -79 -72 -87 0 -20 141 -160 160 -160 20 0
160 140 160 160 0 20 -141 160 -160 160 -9 0 -48 -33 -88 -73z"/>
<path d="M8872 10327 c-39 -40 -72 -79 -72 -87 0 -20 141 -160 160 -160 20 0
160 140 160 160 0 20 -141 160 -160 160 -9 0 -48 -33 -88 -73z"/>
<path d="M10152 10327 c-39 -40 -72 -79 -72 -87 0 -20 141 -160 160 -160 20 0
160 140 160 160 0 20 -141 160 -160 160 -9 0 -48 -33 -88 -73z"/>
<path d="M11432 10327 c-39 -40 -72 -79 -72 -87 0 -20 141 -160 160 -160 20 0
160 140 160 160 0 20 -141 160 -160 160 -9 0 -48 -33 -88 -73z"/>
<path d="M540 9695 l-95 -95 98 -98 97 -97 97 97 98 98 -95 95 c-52 52 -97 95
-100 95 -3 0 -48 -43 -100 -95z"/>
<path d="M1820 9695 l-95 -95 98 -98 97 -97 97 97 98 98 -95 95 c-52 52 -97
95 -100 95 -3 0 -48 -43 -100 -95z"/>
<path d="M3100 9695 l-95 -95 98 -98 97 -97 97 97 98 98 -95 95 c-52 52 -97
95 -100 95 -3 0 -48 -43 -100 -95z"/>
<path d="M4380 9695 l-95 -95 98 -98 97 -97 97 97 98 98 -95 95 c-52 52 -97
95 -100 95 -3 0 -48 -43 -100 -95z"/>
<path d="M5660 9695 l-95 -95 98 -98 97 -97 97 97 98 98 -95 95 c-52 52 -97
95 -100 95 -3 0 -48 -43 -100 -95z"/>
<path d="M6940 9695 l-95 -95 98 -98 97 -97 97 97 98 98 -95 95 c-52 52 -97
95 -100 95 -3 0 -48 -43 -100 -95z"/>
<path d="M8220 9695 l-95 -95 98 -98 97 -97 97 97 98 98 -95 95 c-52 52 -97
95 -100 95 -3 0 -48 -43 -100 -95z"/>
<path d="M9500 9695 l-95 -95 98 -98 97 -97 97 97 98 98 -95 95 c-52 52 -97
95 -100 95 -3 0 -48 -43 -100 -95z"/>
<path d="M10780 9695 l-95 -95 98 -98 97 -97 97 97 98 98 -95 95 c-52 52 -97
95 -100 95 -3 0 -48 -43 -100 -95z"/>
<path d="M12060 9695 l-95 -95 98 -98 97 -97 97 97 98 98 -95 95 c-52 52 -97
95 -100 95 -3 0 -48 -43 -100 -95z"/>
<path d="M0 8960 l0 -215 107 108 108 107 -108 107 -107 108 0 -215z"/>
<path d="M1170 9065 l-105 -105 108 -108 107 -107 107 107 108 108 -105 105
c-58 58 -107 105 -110 105 -3 0 -52 -47 -110 -105z"/>
<path d="M2450 9065 l-105 -105 108 -108 107 -107 107 107 108 108 -105 105
c-58 58 -107 105 -110 105 -3 0 -52 -47 -110 -105z"/>
<path d="M3730 9065 l-105 -105 108 -108 107 -107 107 107 108 108 -105 105
c-58 58 -107 105 -110 105 -3 0 -52 -47 -110 -105z"/>
<path d="M5010 9065 l-105 -105 108 -108 107 -107 107 107 108 108 -105 105
c-58 58 -107 105 -110 105 -3 0 -52 -47 -110 -105z"/>
<path d="M6290 9065 l-105 -105 108 -108 107 -107 107 107 108 108 -105 105
c-58 58 -107 105 -110 105 -3 0 -52 -47 -110 -105z"/>
<path d="M7570 9065 l-105 -105 108 -108 107 -107 107 107 108 108 -105 105
c-58 58 -107 105 -110 105 -3 0 -52 -47 -110 -105z"/>
<path d="M8850 9065 l-105 -105 108 -108 107 -107 107 107 108 108 -105 105
c-58 58 -107 105 -110 105 -3 0 -52 -47 -110 -105z"/>
<path d="M10130 9065 l-105 -105 108 -108 107 -107 107 107 108 108 -105 105
c-58 58 -107 105 -110 105 -3 0 -52 -47 -110 -105z"/>
<path d="M11410 9065 l-105 -105 108 -108 107 -107 107 107 108 108 -105 105
c-58 58 -107 105 -110 105 -3 0 -52 -47 -110 -105z"/>
<path d="M12690 9065 l-105 -105 108 -108 107 -107 0 213 c0 116 -1 212 -3
212 -1 0 -49 -47 -107 -105z"/>
<path d="M517 8442 c-59 -59 -107 -114 -107 -122 0 -20 211 -230 230 -230 20
0 230 211 230 230 0 20 -211 230 -230 230 -9 0 -64 -48 -123 -108z"/>
<path d="M1797 8442 c-59 -59 -107 -114 -107 -122 0 -20 211 -230 230 -230 20
0 230 211 230 230 0 20 -211 230 -230 230 -9 0 -64 -48 -123 -108z"/>
<path d="M3077 8442 c-59 -59 -107 -114 -107 -122 0 -20 211 -230 230 -230 20
0 230 211 230 230 0 20 -211 230 -230 230 -9 0 -64 -48 -123 -108z"/>
<path d="M4357 8442 c-59 -59 -107 -114 -107 -122 0 -20 211 -230 230 -230 20
0 230 211 230 230 0 20 -211 230 -230 230 -9 0 -64 -48 -123 -108z"/>
<path d="M5637 8442 c-59 -59 -107 -114 -107 -122 0 -20 211 -230 230 -230 20
0 230 211 230 230 0 20 -211 230 -230 230 -9 0 -64 -48 -123 -108z"/>
<path d="M6917 8442 c-59 -59 -107 -114 -107 -122 0 -20 211 -230 230 -230 20
0 230 211 230 230 0 20 -211 230 -230 230 -9 0 -64 -48 -123 -108z"/>
<path d="M8197 8442 c-59 -59 -107 -114 -107 -122 0 -20 211 -230 230 -230 20
0 230 211 230 230 0 20 -211 230 -230 230 -9 0 -64 -48 -123 -108z"/>
<path d="M9477 8442 c-59 -59 -107 -114 -107 -122 0 -20 211 -230 230 -230 20
0 230 211 230 230 0 20 -211 230 -230 230 -9 0 -64 -48 -123 -108z"/>
<path d="M10757 8442 c-59 -59 -107 -114 -107 -122 0 -20 211 -230 230 -230
20 0 230 211 230 230 0 20 -211 230 -230 230 -9 0 -64 -48 -123 -108z"/>
<path d="M12037 8442 c-59 -59 -107 -114 -107 -122 0 -20 211 -230 230 -230
20 0 230 211 230 230 0 20 -211 230 -230 230 -9 0 -64 -48 -123 -108z"/>
<path d="M0 7680 l0 -265 132 133 133 132 -133 132 -132 133 0 -265z"/>
<path d="M1145 7810 l-130 -130 133 -133 132 -132 132 132 133 133 -130 130
c-71 71 -132 130 -135 130 -3 0 -64 -59 -135 -130z"/>
<path d="M2425 7810 l-130 -130 133 -133 132 -132 132 132 133 133 -130 130
c-71 71 -132 130 -135 130 -3 0 -64 -59 -135 -130z"/>
<path d="M3705 7810 l-130 -130 133 -133 132 -132 132 132 133 133 -130 130
c-71 71 -132 130 -135 130 -3 0 -64 -59 -135 -130z"/>
<path d="M4985 7810 l-130 -130 133 -133 132 -132 132 132 133 133 -130 130
c-71 71 -132 130 -135 130 -3 0 -64 -59 -135 -130z"/>
<path d="M6265 7810 l-130 -130 133 -133 132 -132 132 132 133 133 -130 130
c-71 71 -132 130 -135 130 -3 0 -64 -59 -135 -130z"/>
<path d="M7545 7810 l-130 -130 133 -133 132 -132 132 132 133 133 -130 130
c-71 71 -132 130 -135 130 -3 0 -64 -59 -135 -130z"/>
<path d="M8825 7810 l-130 -130 133 -133 132 -132 132 132 133 133 -130 130
c-71 71 -132 130 -135 130 -3 0 -64 -59 -135 -130z"/>
<path d="M10105 7810 l-130 -130 133 -133 132 -132 132 132 133 133 -130 130
c-71 71 -132 130 -135 130 -3 0 -64 -59 -135 -130z"/>
<path d="M11385 7810 l-130 -130 133 -133 132 -132 132 132 133 133 -130 130
c-71 71 -132 130 -135 130 -3 0 -64 -59 -135 -130z"/>
<path d="M12665 7810 l-130 -130 133 -133 132 -132 0 263 c0 144 -1 262 -3
262 -1 0 -61 -59 -132 -130z"/>
<path d="M495 7180 l-140 -140 143 -143 142 -142 142 142 143 143 -140 140
c-77 77 -142 140 -145 140 -3 0 -68 -63 -145 -140z"/>
<path d="M1775 7180 l-140 -140 143 -143 142 -142 142 142 143 143 -140 140
c-77 77 -142 140 -145 140 -3 0 -68 -63 -145 -140z"/>
<path d="M3055 7180 l-140 -140 143 -143 142 -142 142 142 143 143 -140 140
c-77 77 -142 140 -145 140 -3 0 -68 -63 -145 -140z"/>
<path d="M4335 7180 l-140 -140 143 -143 142 -142 142 142 143 143 -140 140
c-77 77 -142 140 -145 140 -3 0 -68 -63 -145 -140z"/>
<path d="M5615 7180 l-140 -140 143 -143 142 -142 142 142 143 143 -140 140
c-77 77 -142 140 -145 140 -3 0 -68 -63 -145 -140z"/>
<path d="M6895 7180 l-140 -140 143 -143 142 -142 142 142 143 143 -140 140
c-77 77 -142 140 -145 140 -3 0 -68 -63 -145 -140z"/>
<path d="M8175 7180 l-140 -140 143 -143 142 -142 142 142 143 143 -140 140
c-77 77 -142 140 -145 140 -3 0 -68 -63 -145 -140z"/>
<path d="M9455 7180 l-140 -140 143 -143 142 -142 142 142 143 143 -140 140
c-77 77 -142 140 -145 140 -3 0 -68 -63 -145 -140z"/>
<path d="M10735 7180 l-140 -140 143 -143 142 -142 142 142 143 143 -140 140
c-77 77 -142 140 -145 140 -3 0 -68 -63 -145 -140z"/>
<path d="M12015 7180 l-140 -140 143 -143 142 -142 142 142 143 143 -140 140
c-77 77 -142 140 -145 140 -3 0 -68 -63 -145 -140z"/>
<path d="M0 6400 l0 -305 152 153 153 152 -153 152 -152 153 0 -305z"/>
<path d="M1125 6550 l-150 -150 153 -153 152 -152 152 152 153 153 -150 150
c-82 82 -152 150 -155 150 -3 0 -73 -68 -155 -150z"/>
<path d="M2405 6550 l-150 -150 153 -153 152 -152 152 152 153 153 -150 150
c-82 82 -152 150 -155 150 -3 0 -73 -68 -155 -150z"/>
<path d="M3685 6550 l-150 -150 153 -153 152 -152 152 152 153 153 -150 150
c-82 82 -152 150 -155 150 -3 0 -73 -68 -155 -150z"/>
<path d="M4965 6550 l-150 -150 153 -153 152 -152 152 152 153 153 -150 150
c-82 82 -152 150 -155 150 -3 0 -73 -68 -155 -150z"/>
<path d="M6245 6550 l-150 -150 153 -153 152 -152 152 152 153 153 -150 150
c-82 82 -152 150 -155 150 -3 0 -73 -68 -155 -150z"/>
<path d="M7525 6550 l-150 -150 153 -153 152 -152 152 152 153 153 -150 150
c-82 82 -152 150 -155 150 -3 0 -73 -68 -155 -150z"/>
<path d="M8805 6550 l-150 -150 153 -153 152 -152 152 152 153 153 -150 150
c-82 82 -152 150 -155 150 -3 0 -73 -68 -155 -150z"/>
<path d="M10085 6550 l-150 -150 153 -153 152 -152 152 152 153 153 -150 150
c-82 82 -152 150 -155 150 -3 0 -73 -68 -155 -150z"/>
<path d="M11365 6550 l-150 -150 153 -153 152 -152 152 152 153 153 -150 150
c-82 82 -152 150 -155 150 -3 0 -73 -68 -155 -150z"/>
<path d="M12645 6550 l-150 -150 153 -153 152 -152 0 303 c0 166 -1 302 -3
302 -1 0 -70 -68 -152 -150z"/>
<path d="M470 5925 l-165 -165 168 -168 167 -167 167 167 168 168 -165 165
c-91 91 -167 165 -170 165 -3 0 -79 -74 -170 -165z"/>
<path d="M1750 5925 l-165 -165 168 -168 167 -167 167 167 168 168 -165 165
c-91 91 -167 165 -170 165 -3 0 -79 -74 -170 -165z"/>
<path d="M3030 5925 l-165 -165 168 -168 167 -167 167 167 168 168 -165 165
c-91 91 -167 165 -170 165 -3 0 -79 -74 -170 -165z"/>
<path d="M4310 5925 l-165 -165 168 -168 167 -167 167 167 168 168 -165 165
c-91 91 -167 165 -170 165 -3 0 -79 -74 -170 -165z"/>
<path d="M5590 5925 l-165 -165 168 -168 167 -167 167 167 168 168 -165 165
c-91 91 -167 165 -170 165 -3 0 -79 -74 -170 -165z"/>
<path d="M6870 5925 l-165 -165 168 -168 167 -167 167 167 168 168 -165 165
c-91 91 -167 165 -170 165 -3 0 -79 -74 -170 -165z"/>
<path d="M8150 5925 l-165 -165 168 -168 167 -167 167 167 168 168 -165 165
c-91 91 -167 165 -170 165 -3 0 -79 -74 -170 -165z"/>
<path d="M9430 5925 l-165 -165 168 -168 167 -167 167 167 168 168 -165 165
c-91 91 -167 165 -170 165 -3 0 -79 -74 -170 -165z"/>
<path d="M10710 5925 l-165 -165 168 -168 167 -167 167 167 168 168 -165 165
c-91 91 -167 165 -170 165 -3 0 -79 -74 -170 -165z"/>
<path d="M11990 5925 l-165 -165 168 -168 167 -167 167 167 168 168 -165 165
c-91 91 -167 165 -170 165 -3 0 -79 -74 -170 -165z"/>
<path d="M0 5120 l0 -355 177 178 178 177 -178 177 -177 178 0 -355z"/>
<path d="M1100 5295 l-175 -175 178 -178 177 -177 177 177 178 178 -175 175
c-96 96 -177 175 -180 175 -3 0 -84 -79 -180 -175z"/>
<path d="M2380 5295 l-175 -175 178 -178 177 -177 177 177 178 178 -175 175
c-96 96 -177 175 -180 175 -3 0 -84 -79 -180 -175z"/>
<path d="M3660 5295 l-175 -175 178 -178 177 -177 177 177 178 178 -175 175
c-96 96 -177 175 -180 175 -3 0 -84 -79 -180 -175z"/>
<path d="M4940 5295 l-175 -175 178 -178 177 -177 177 177 178 178 -175 175
c-96 96 -177 175 -180 175 -3 0 -84 -79 -180 -175z"/>
<path d="M6220 5295 l-175 -175 178 -178 177 -177 177 177 178 178 -175 175
c-96 96 -177 175 -180 175 -3 0 -84 -79 -180 -175z"/>
<path d="M7500 5295 l-175 -175 178 -178 177 -177 177 177 178 178 -175 175
c-96 96 -177 175 -180 175 -3 0 -84 -79 -180 -175z"/>
<path d="M8780 5295 l-175 -175 178 -178 177 -177 177 177 178 178 -175 175
c-96 96 -177 175 -180 175 -3 0 -84 -79 -180 -175z"/>
<path d="M10060 5295 l-175 -175 178 -178 177 -177 177 177 178 178 -175 175
c-96 96 -177 175 -180 175 -3 0 -84 -79 -180 -175z"/>
<path d="M11340 5295 l-175 -175 178 -178 177 -177 177 177 178 178 -175 175
c-96 96 -177 175 -180 175 -3 0 -84 -79 -180 -175z"/>
<path d="M12620 5295 l-175 -175 178 -178 177 -177 0 353 c0 193 -1 352 -3
352 -1 0 -81 -79 -177 -175z"/>
<path d="M450 4665 l-185 -185 188 -188 187 -187 187 187 188 188 -185 185
c-102 102 -187 185 -190 185 -3 0 -88 -83 -190 -185z"/>
<path d="M1730 4665 l-185 -185 188 -188 187 -187 187 187 188 188 -185 185
c-102 102 -187 185 -190 185 -3 0 -88 -83 -190 -185z"/>
<path d="M3010 4665 l-185 -185 188 -188 187 -187 187 187 188 188 -185 185
c-102 102 -187 185 -190 185 -3 0 -88 -83 -190 -185z"/>
<path d="M4290 4665 l-185 -185 188 -188 187 -187 187 187 188 188 -185 185
c-102 102 -187 185 -190 185 -3 0 -88 -83 -190 -185z"/>
<path d="M5570 4665 l-185 -185 188 -188 187 -187 187 187 188 188 -185 185
c-102 102 -187 185 -190 185 -3 0 -88 -83 -190 -185z"/>
<path d="M6850 4665 l-185 -185 188 -188 187 -187 187 187 188 188 -185 185
c-102 102 -187 185 -190 185 -3 0 -88 -83 -190 -185z"/>
<path d="M8130 4665 l-185 -185 188 -188 187 -187 187 187 188 188 -185 185
c-102 102 -187 185 -190 185 -3 0 -88 -83 -190 -185z"/>
<path d="M9410 4665 l-185 -185 188 -188 187 -187 187 187 188 188 -185 185
c-102 102 -187 185 -190 185 -3 0 -88 -83 -190 -185z"/>
<path d="M10690 4665 l-185 -185 188 -188 187 -187 187 187 188 188 -185 185
c-102 102 -187 185 -190 185 -3 0 -88 -83 -190 -185z"/>
<path d="M11970 4665 l-185 -185 188 -188 187 -187 187 187 188 188 -185 185
c-102 102 -187 185 -190 185 -3 0 -88 -83 -190 -185z"/>
<path d="M0 3840 l0 -405 202 203 203 202 -203 202 -202 203 0 -405z"/>
<path d="M1075 4040 l-200 -200 195 -195 c107 -107 202 -195 210 -195 8 0 103
88 210 195 l195 195 -200 200 c-110 110 -202 200 -205 200 -3 0 -95 -90 -205
-200z"/>
<path d="M2355 4040 l-200 -200 195 -195 c107 -107 202 -195 210 -195 8 0 103
88 210 195 l195 195 -200 200 c-110 110 -202 200 -205 200 -3 0 -95 -90 -205
-200z"/>
<path d="M3635 4040 l-200 -200 195 -195 c107 -107 202 -195 210 -195 8 0 103
88 210 195 l195 195 -200 200 c-110 110 -202 200 -205 200 -3 0 -95 -90 -205
-200z"/>
<path d="M4915 4040 l-200 -200 195 -195 c107 -107 202 -195 210 -195 8 0 103
88 210 195 l195 195 -200 200 c-110 110 -202 200 -205 200 -3 0 -95 -90 -205
-200z"/>
<path d="M6195 4040 l-200 -200 195 -195 c107 -107 202 -195 210 -195 8 0 103
88 210 195 l195 195 -200 200 c-110 110 -202 200 -205 200 -3 0 -95 -90 -205
-200z"/>
<path d="M7475 4040 l-200 -200 195 -195 c107 -107 202 -195 210 -195 8 0 103
88 210 195 l195 195 -200 200 c-110 110 -202 200 -205 200 -3 0 -95 -90 -205
-200z"/>
<path d="M8755 4040 l-200 -200 195 -195 c107 -107 202 -195 210 -195 8 0 103
88 210 195 l195 195 -200 200 c-110 110 -202 200 -205 200 -3 0 -95 -90 -205
-200z"/>
<path d="M10035 4040 l-200 -200 195 -195 c107 -107 202 -195 210 -195 8 0
103 88 210 195 l195 195 -200 200 c-110 110 -202 200 -205 200 -3 0 -95 -90
-205 -200z"/>
<path d="M11315 4040 l-200 -200 195 -195 c107 -107 202 -195 210 -195 8 0
103 88 210 195 l195 195 -200 200 c-110 110 -202 200 -205 200 -3 0 -95 -90
-205 -200z"/>
<path d="M12595 4040 l-200 -200 203 -203 202 -202 0 403 c0 221 -1 402 -3
402 -1 0 -92 -90 -202 -200z"/>
<path d="M425 3410 l-210 -210 213 -213 212 -212 212 212 213 213 -210 210
c-115 115 -212 210 -215 210 -3 0 -100 -95 -215 -210z"/>
<path d="M1705 3410 l-210 -210 213 -213 212 -212 212 212 213 213 -210 210
c-115 115 -212 210 -215 210 -3 0 -100 -95 -215 -210z"/>
<path d="M2985 3410 l-210 -210 213 -213 212 -212 212 212 213 213 -210 210
c-115 115 -212 210 -215 210 -3 0 -100 -95 -215 -210z"/>
<path d="M4265 3410 l-210 -210 213 -213 212 -212 212 212 213 213 -210 210
c-115 115 -212 210 -215 210 -3 0 -100 -95 -215 -210z"/>
<path d="M5545 3410 l-210 -210 213 -213 212 -212 212 212 213 213 -210 210
c-115 115 -212 210 -215 210 -3 0 -100 -95 -215 -210z"/>
<path d="M6825 3410 l-210 -210 213 -213 212 -212 212 212 213 213 -210 210
c-115 115 -212 210 -215 210 -3 0 -100 -95 -215 -210z"/>
<path d="M8105 3410 l-210 -210 213 -213 212 -212 212 212 213 213 -210 210
c-115 115 -212 210 -215 210 -3 0 -100 -95 -215 -210z"/>
<path d="M9385 3410 l-210 -210 213 -213 212 -212 212 212 213 213 -210 210
c-115 115 -212 210 -215 210 -3 0 -100 -95 -215 -210z"/>
<path d="M10665 3410 l-210 -210 213 -213 212 -212 212 212 213 213 -210 210
c-115 115 -212 210 -215 210 -3 0 -100 -95 -215 -210z"/>
<path d="M11945 3410 l-210 -210 213 -213 212 -212 212 212 213 213 -210 210
c-115 115 -212 210 -215 210 -3 0 -100 -95 -215 -210z"/>
<path d="M0 2560 l0 -445 222 223 223 222 -223 222 -222 223 0 -445z"/>
<path d="M1055 2780 l-220 -220 223 -223 222 -222 222 222 223 223 -220 220
c-121 121 -222 220 -225 220 -3 0 -104 -99 -225 -220z"/>
<path d="M2335 2780 l-220 -220 223 -223 222 -222 222 222 223 223 -220 220
c-121 121 -222 220 -225 220 -3 0 -104 -99 -225 -220z"/>
<path d="M3615 2780 l-220 -220 223 -223 222 -222 222 222 223 223 -220 220
c-121 121 -222 220 -225 220 -3 0 -104 -99 -225 -220z"/>
<path d="M4895 2780 l-220 -220 223 -223 222 -222 222 222 223 223 -220 220
c-121 121 -222 220 -225 220 -3 0 -104 -99 -225 -220z"/>
<path d="M6175 2780 l-220 -220 223 -223 222 -222 222 222 223 223 -220 220
c-121 121 -222 220 -225 220 -3 0 -104 -99 -225 -220z"/>
<path d="M7455 2780 l-220 -220 223 -223 222 -222 222 222 223 223 -220 220
c-121 121 -222 220 -225 220 -3 0 -104 -99 -225 -220z"/>
<path d="M8735 2780 l-220 -220 223 -223 222 -222 222 222 223 223 -220 220
c-121 121 -222 220 -225 220 -3 0 -104 -99 -225 -220z"/>
<path d="M10015 2780 l-220 -220 223 -223 222 -222 222 222 223 223 -220 220
c-121 121 -222 220 -225 220 -3 0 -104 -99 -225 -220z"/>
<path d="M11295 2780 l-220 -220 223 -223 222 -222 222 222 223 223 -220 220
c-121 121 -222 220 -225 220 -3 0 -104 -99 -225 -220z"/>
<path d="M12575 2780 l-220 -220 223 -223 222 -222 0 443 c0 243 -1 442 -3
442 -1 0 -101 -99 -222 -220z"/>
<path d="M402 2157 c-122 -122 -222 -229 -222 -237 0 -20 441 -460 460 -460
20 0 460 441 460 460 0 20 -441 460 -460 460 -8 0 -115 -100 -238 -223z"/>
<path d="M1682 2157 c-122 -122 -222 -229 -222 -237 0 -20 441 -460 460 -460
20 0 460 441 460 460 0 20 -441 460 -460 460 -8 0 -115 -100 -238 -223z"/>
<path d="M2962 2157 c-122 -122 -222 -229 -222 -237 0 -20 441 -460 460 -460
20 0 460 441 460 460 0 20 -441 460 -460 460 -8 0 -115 -100 -238 -223z"/>
<path d="M4242 2157 c-122 -122 -222 -229 -222 -237 0 -20 441 -460 460 -460
20 0 460 441 460 460 0 20 -441 460 -460 460 -8 0 -115 -100 -238 -223z"/>
<path d="M5522 2157 c-122 -122 -222 -229 -222 -237 0 -20 441 -460 460 -460
20 0 460 441 460 460 0 20 -441 460 -460 460 -8 0 -115 -100 -238 -223z"/>
<path d="M6802 2157 c-122 -122 -222 -229 -222 -237 0 -20 441 -460 460 -460
20 0 460 441 460 460 0 20 -441 460 -460 460 -8 0 -115 -100 -238 -223z"/>
<path d="M8082 2157 c-122 -122 -222 -229 -222 -237 0 -20 441 -460 460 -460
20 0 460 441 460 460 0 20 -441 460 -460 460 -8 0 -115 -100 -238 -223z"/>
<path d="M9362 2157 c-122 -122 -222 -229 -222 -237 0 -20 441 -460 460 -460
20 0 460 441 460 460 0 20 -441 460 -460 460 -8 0 -115 -100 -238 -223z"/>
<path d="M10642 2157 c-122 -122 -222 -229 -222 -237 0 -20 441 -460 460 -460
20 0 460 441 460 460 0 20 -441 460 -460 460 -8 0 -115 -100 -238 -223z"/>
<path d="M11922 2157 c-122 -122 -222 -229 -222 -237 0 -20 441 -460 460 -460
20 0 460 441 460 460 0 20 -441 460 -460 460 -8 0 -115 -100 -238 -223z"/>
<path d="M0 1280 l0 -495 247 248 248 247 -248 247 -247 248 0 -495z"/>
<path d="M1030 1525 l-245 -245 248 -248 247 -247 247 247 248 248 -245 245
c-135 135 -247 245 -250 245 -3 0 -115 -110 -250 -245z"/>
<path d="M2310 1525 l-245 -245 248 -248 247 -247 247 247 248 248 -245 245
c-135 135 -247 245 -250 245 -3 0 -115 -110 -250 -245z"/>
<path d="M3590 1525 l-245 -245 248 -248 247 -247 247 247 248 248 -245 245
c-135 135 -247 245 -250 245 -3 0 -115 -110 -250 -245z"/>
<path d="M4870 1525 l-245 -245 248 -248 247 -247 247 247 248 248 -245 245
c-135 135 -247 245 -250 245 -3 0 -115 -110 -250 -245z"/>
<path d="M6150 1525 l-245 -245 248 -248 247 -247 247 247 248 248 -245 245
c-135 135 -247 245 -250 245 -3 0 -115 -110 -250 -245z"/>
<path d="M7430 1525 l-245 -245 248 -248 247 -247 247 247 248 248 -245 245
c-135 135 -247 245 -250 245 -3 0 -115 -110 -250 -245z"/>
<path d="M8710 1525 l-245 -245 248 -248 247 -247 247 247 248 248 -245 245
c-135 135 -247 245 -250 245 -3 0 -115 -110 -250 -245z"/>
<path d="M9990 1525 l-245 -245 248 -248 247 -247 247 247 248 248 -245 245
c-135 135 -247 245 -250 245 -3 0 -115 -110 -250 -245z"/>
<path d="M11270 1525 l-245 -245 248 -248 247 -247 247 247 248 248 -245 245
c-135 135 -247 245 -250 245 -3 0 -115 -110 -250 -245z"/>
<path d="M12550 1525 l-245 -245 248 -248 247 -247 0 493 c0 270 -1 492 -3
492 -1 0 -112 -110 -247 -245z"/>
<path d="M380 895 l-255 -255 258 -258 257 -257 257 257 258 258 -255 255
c-140 140 -257 255 -260 255 -3 0 -120 -115 -260 -255z"/>
<path d="M1660 895 l-255 -255 258 -258 257 -257 257 257 258 258 -255 255
c-140 140 -257 255 -260 255 -3 0 -120 -115 -260 -255z"/>
<path d="M2940 895 l-255 -255 258 -258 257 -257 257 257 258 258 -255 255
c-140 140 -257 255 -260 255 -3 0 -120 -115 -260 -255z"/>
<path d="M4220 895 l-255 -255 258 -258 257 -257 257 257 258 258 -255 255
c-140 140 -257 255 -260 255 -3 0 -120 -115 -260 -255z"/>
<path d="M5500 895 l-255 -255 258 -258 257 -257 257 257 258 258 -255 255
c-140 140 -257 255 -260 255 -3 0 -120 -115 -260 -255z"/>
<path d="M6780 895 l-255 -255 258 -258 257 -257 257 257 258 258 -255 255
c-140 140 -257 255 -260 255 -3 0 -120 -115 -260 -255z"/>
<path d="M8060 895 l-255 -255 258 -258 257 -257 257 257 258 258 -255 255
c-140 140 -257 255 -260 255 -3 0 -120 -115 -260 -255z"/>
<path d="M9340 895 l-255 -255 258 -258 257 -257 257 257 258 258 -255 255
c-140 140 -257 255 -260 255 -3 0 -120 -115 -260 -255z"/>
<path d="M10620 895 l-255 -255 258 -258 257 -257 257 257 258 258 -255 255
c-140 140 -257 255 -260 255 -3 0 -120 -115 -260 -255z"/>
<path d="M11900 895 l-255 -255 258 -258 257 -257 257 257 258 258 -255 255
c-140 140 -257 255 -260 255 -3 0 -120 -115 -260 -255z"/>
<path d="M0 265 l0 -265 265 0 c146 0 265 3 265 8 0 9 -513 522 -523 522 -4 0
-7 -119 -7 -265z"/>
<path d="M1007 272 c-141 -141 -257 -260 -257 -265 0 -4 239 -7 530 -7 292 0
530 3 530 8 0 14 -515 522 -530 522 -8 0 -131 -116 -273 -258z"/>
<path d="M2287 272 c-141 -141 -257 -260 -257 -265 0 -4 239 -7 530 -7 292 0
530 3 530 8 0 14 -515 522 -530 522 -8 0 -131 -116 -273 -258z"/>
<path d="M3567 272 c-141 -141 -257 -260 -257 -265 0 -4 239 -7 530 -7 292 0
530 3 530 8 0 14 -515 522 -530 522 -8 0 -131 -116 -273 -258z"/>
<path d="M4847 272 c-141 -141 -257 -260 -257 -265 0 -4 239 -7 530 -7 292 0
530 3 530 8 0 14 -515 522 -530 522 -8 0 -131 -116 -273 -258z"/>
<path d="M6127 272 c-141 -141 -257 -260 -257 -265 0 -4 239 -7 530 -7 292 0
530 3 530 8 0 14 -515 522 -530 522 -8 0 -131 -116 -273 -258z"/>
<path d="M7407 272 c-141 -141 -257 -260 -257 -265 0 -4 239 -7 530 -7 292 0
530 3 530 8 0 14 -515 522 -530 522 -8 0 -131 -116 -273 -258z"/>
<path d="M8687 272 c-141 -141 -257 -260 -257 -265 0 -4 239 -7 530 -7 292 0
530 3 530 8 0 14 -515 522 -530 522 -8 0 -131 -116 -273 -258z"/>
<path d="M9967 272 c-141 -141 -257 -260 -257 -265 0 -4 239 -7 530 -7 292 0
530 3 530 8 0 14 -515 522 -530 522 -8 0 -131 -116 -273 -258z"/>
<path d="M11247 272 c-141 -141 -257 -260 -257 -265 0 -4 239 -7 530 -7 292 0
530 3 530 8 0 14 -515 522 -530 522 -8 0 -131 -116 -273 -258z"/>
<path d="M12527 272 c-141 -141 -257 -260 -257 -265 0 -4 119 -7 265 -7 l265
0 0 265 c0 146 -3 265 -8 265 -4 0 -123 -116 -265 -258z"/>
</g>
</svg>
